<mxfile host="65bd71144e">
    <diagram name="Page-1" id="jkyWEsUThgF6aey1WfAn">
        <mxGraphModel dx="4440" dy="2696" grid="0" gridSize="10" guides="1" tooltips="1" connect="1" arrows="1" fold="1" page="0" pageScale="1" pageWidth="827" pageHeight="1169" math="0" shadow="0">
            <root>
                <mxCell id="0"/>
                <mxCell id="1" parent="0"/>
                <mxCell id="77" value="" style="rounded=0;whiteSpace=wrap;html=1;dashed=1;dashPattern=8 8;" parent="1" vertex="1">
                    <mxGeometry x="182" y="1733" width="1383" height="293" as="geometry"/>
                </mxCell>
                <mxCell id="108" value="" style="rounded=0;whiteSpace=wrap;html=1;dashed=1;dashPattern=8 8;" parent="1" vertex="1">
                    <mxGeometry x="651" y="1855" width="186" height="104" as="geometry"/>
                </mxCell>
                <mxCell id="66" value="&lt;span style=&quot;font-size: 24px; font-style: normal;&quot;&gt;Primary:&lt;/span&gt;&lt;div&gt;&lt;span style=&quot;font-size: 24px; font-style: normal;&quot;&gt;- Use real data&lt;/span&gt;&lt;div&gt;&lt;span style=&quot;font-size: 24px; font-style: normal;&quot;&gt;- Structured output (compatible w SQL/PowerBI) (user_id, has_overlap:bool, summary &lt;/span&gt;&lt;span style=&quot;font-size: 24px;&quot;&gt;why it has overlap&lt;/span&gt;&lt;span style=&quot;font-size: 24px; font-style: normal;&quot;&gt;)&lt;/span&gt;&lt;/div&gt;&lt;div&gt;&lt;span style=&quot;font-size: 24px; font-style: normal;&quot;&gt;&lt;br&gt;&lt;/span&gt;&lt;/div&gt;&lt;div&gt;&lt;span style=&quot;font-size: 24px; font-style: normal;&quot;&gt;Secondary:&lt;/span&gt;&lt;/div&gt;&lt;div&gt;&lt;span style=&quot;font-size: 24px; font-style: normal;&quot;&gt;- Look into batching&lt;/span&gt;&lt;/div&gt;&lt;div&gt;&lt;span style=&quot;color: rgb(63, 63, 63); font-size: 24px; font-style: normal;&quot;&gt;- Evaluate accuracy&lt;/span&gt;&lt;/div&gt;&lt;/div&gt;&lt;div&gt;&lt;span style=&quot;color: rgb(63, 63, 63); font-size: 24px; font-style: normal;&quot;&gt;- Cost of running&lt;/span&gt;&lt;/div&gt;&lt;div&gt;&lt;span style=&quot;color: rgb(63, 63, 63); font-size: 24px; font-style: normal;&quot;&gt;- Cost per query&lt;/span&gt;&lt;/div&gt;&lt;div&gt;&lt;span style=&quot;color: rgb(63, 63, 63); font-size: 24px; font-style: normal;&quot;&gt;&lt;br&gt;&lt;/span&gt;&lt;/div&gt;&lt;div&gt;&lt;span style=&quot;font-size: 24px; font-style: normal;&quot;&gt;OTHER:&lt;/span&gt;&lt;/div&gt;&lt;div&gt;&lt;span style=&quot;font-size: 24px; font-style: normal;&quot;&gt;- Cache&lt;/span&gt;&lt;/div&gt;&lt;div&gt;&lt;span style=&quot;font-size: 24px; font-style: normal;&quot;&gt;- Get last updated date from m365 and invalidate caches from before last refresh after that date&lt;/span&gt;&lt;/div&gt;" style="text;html=1;align=left;verticalAlign=top;whiteSpace=wrap;rounded=0;fontStyle=2" parent="1" vertex="1">
                    <mxGeometry x="309" y="989" width="1275" height="451" as="geometry"/>
                </mxCell>
                <mxCell id="69" style="edgeStyle=none;html=1;" parent="1" source="67" target="68" edge="1">
                    <mxGeometry relative="1" as="geometry"/>
                </mxCell>
                <mxCell id="67" value="CSV&amp;nbsp;&lt;div&gt;(user_ids, licenses)&lt;/div&gt;" style="shape=note;whiteSpace=wrap;html=1;backgroundOutline=1;darkOpacity=0.05;" parent="1" vertex="1">
                    <mxGeometry x="7" y="1781.87" width="122" height="151.25" as="geometry"/>
                </mxCell>
                <mxCell id="94" style="edgeStyle=none;html=1;" parent="1" source="68" target="93" edge="1">
                    <mxGeometry relative="1" as="geometry"/>
                </mxCell>
                <mxCell id="68" value="Extract unique sets of licenses" style="shape=process;whiteSpace=wrap;html=1;backgroundOutline=1;" parent="1" vertex="1">
                    <mxGeometry x="246" y="1827.5" width="120" height="60" as="geometry"/>
                </mxCell>
                <mxCell id="74" style="edgeStyle=none;html=1;entryX=0.5;entryY=0;entryDx=0;entryDy=0;" parent="1" edge="1">
                    <mxGeometry relative="1" as="geometry">
                        <mxPoint x="487.5" y="1686.9899999999998" as="sourcePoint"/>
                        <mxPoint x="487.5" y="1827.5" as="targetPoint"/>
                    </mxGeometry>
                </mxCell>
                <mxCell id="70" value="Cache&lt;br&gt;key=set of licenses" style="shape=cylinder3;whiteSpace=wrap;html=1;boundedLbl=1;backgroundOutline=1;size=15;" parent="1" vertex="1">
                    <mxGeometry x="419" y="1535" width="123" height="151.99" as="geometry"/>
                </mxCell>
                <mxCell id="73" style="edgeStyle=none;html=1;entryX=0.5;entryY=1;entryDx=0;entryDy=0;entryPerimeter=0;" parent="1" edge="1">
                    <mxGeometry relative="1" as="geometry">
                        <mxPoint x="476.5" y="1827.5" as="sourcePoint"/>
                        <mxPoint x="476.5" y="1686.9899999999998" as="targetPoint"/>
                    </mxGeometry>
                </mxCell>
                <mxCell id="80" style="edgeStyle=none;html=1;" parent="1" source="76" target="79" edge="1">
                    <mxGeometry relative="1" as="geometry"/>
                </mxCell>
                <mxCell id="76" value="Genereate context" style="shape=process;whiteSpace=wrap;html=1;backgroundOutline=1;" parent="1" vertex="1">
                    <mxGeometry x="679" y="1767.5" width="136" height="60" as="geometry"/>
                </mxCell>
                <mxCell id="88" style="edgeStyle=none;html=1;" parent="1" edge="1">
                    <mxGeometry relative="1" as="geometry">
                        <mxPoint x="926" y="1828.5" as="sourcePoint"/>
                        <mxPoint x="926" y="1624" as="targetPoint"/>
                    </mxGeometry>
                </mxCell>
                <mxCell id="92" style="edgeStyle=none;html=1;" parent="1" source="79" target="91" edge="1">
                    <mxGeometry relative="1" as="geometry"/>
                </mxCell>
                <mxCell id="79" value="Query Azure OpenAI Instance" style="shape=process;whiteSpace=wrap;html=1;backgroundOutline=1;" parent="1" vertex="1">
                    <mxGeometry x="863" y="1828.5" width="136" height="60" as="geometry"/>
                </mxCell>
                <mxCell id="89" style="edgeStyle=none;html=1;" parent="1" edge="1">
                    <mxGeometry relative="1" as="geometry">
                        <mxPoint x="936" y="1624" as="sourcePoint"/>
                        <mxPoint x="936" y="1828.5" as="targetPoint"/>
                    </mxGeometry>
                </mxCell>
                <mxCell id="81" value="Azure OpenAI Instance" style="shape=process;whiteSpace=wrap;html=1;backgroundOutline=1;" parent="1" vertex="1">
                    <mxGeometry x="871" y="1564" width="120" height="60" as="geometry"/>
                </mxCell>
                <mxCell id="84" style="edgeStyle=none;html=1;" parent="1" source="82" target="79" edge="1">
                    <mxGeometry relative="1" as="geometry"/>
                </mxCell>
                <mxCell id="82" value="Genereate queries" style="shape=process;whiteSpace=wrap;html=1;backgroundOutline=1;" parent="1" vertex="1">
                    <mxGeometry x="679" y="1867" width="136" height="60" as="geometry"/>
                </mxCell>
                <mxCell id="90" value="" style="verticalLabelPosition=bottom;verticalAlign=top;html=1;shape=mxgraph.basic.4_point_star_2;dx=0.8;" parent="1" vertex="1">
                    <mxGeometry x="968" y="1549" width="33" height="33" as="geometry"/>
                </mxCell>
                <mxCell id="101" style="edgeStyle=none;html=1;" parent="1" source="91" target="100" edge="1">
                    <mxGeometry relative="1" as="geometry"/>
                </mxCell>
                <mxCell id="91" value="Unpack responses" style="shape=process;whiteSpace=wrap;html=1;backgroundOutline=1;" parent="1" vertex="1">
                    <mxGeometry x="1042" y="1828.5" width="136" height="60" as="geometry"/>
                </mxCell>
                <mxCell id="95" style="edgeStyle=none;html=1;" parent="1" source="93" target="76" edge="1">
                    <mxGeometry relative="1" as="geometry"/>
                </mxCell>
                <mxCell id="96" style="edgeStyle=none;html=1;" parent="1" source="93" target="82" edge="1">
                    <mxGeometry relative="1" as="geometry"/>
                </mxCell>
                <mxCell id="105" style="edgeStyle=orthogonalEdgeStyle;html=1;entryX=0.5;entryY=1;entryDx=0;entryDy=0;rounded=0;curved=0;" parent="1" source="93" target="100" edge="1">
                    <mxGeometry relative="1" as="geometry">
                        <Array as="points">
                            <mxPoint x="482" y="1997"/>
                            <mxPoint x="1283" y="1997"/>
                        </Array>
                    </mxGeometry>
                </mxCell>
                <mxCell id="93" value="Check cache" style="shape=process;whiteSpace=wrap;html=1;backgroundOutline=1;" parent="1" vertex="1">
                    <mxGeometry x="422" y="1827.4899999999998" width="120" height="60" as="geometry"/>
                </mxCell>
                <mxCell id="98" value="Cache&lt;br&gt;Misses" style="text;html=1;align=center;verticalAlign=middle;whiteSpace=wrap;rounded=0;" parent="1" vertex="1">
                    <mxGeometry x="577" y="1838" width="60" height="30" as="geometry"/>
                </mxCell>
                <mxCell id="112" style="edgeStyle=none;html=1;" parent="1" source="100" target="111" edge="1">
                    <mxGeometry relative="1" as="geometry"/>
                </mxCell>
                <mxCell id="100" value="Join cache and responses" style="shape=process;whiteSpace=wrap;html=1;backgroundOutline=1;" parent="1" vertex="1">
                    <mxGeometry x="1215" y="1828.5" width="136" height="60" as="geometry"/>
                </mxCell>
                <mxCell id="97" value="Cache Hits" style="text;html=1;align=center;verticalAlign=middle;whiteSpace=wrap;rounded=0;labelBackgroundColor=default;" parent="1" vertex="1">
                    <mxGeometry x="452" y="1912.25" width="60" height="30" as="geometry"/>
                </mxCell>
                <mxCell id="110" value="Perform Batching" style="text;html=1;align=center;verticalAlign=middle;resizable=0;points=[];autosize=1;strokeColor=none;fillColor=none;" parent="1" vertex="1">
                    <mxGeometry x="691.5" y="1930" width="111" height="26" as="geometry"/>
                </mxCell>
                <mxCell id="114" style="edgeStyle=none;html=1;" parent="1" source="111" target="113" edge="1">
                    <mxGeometry relative="1" as="geometry"/>
                </mxCell>
                <mxCell id="111" value="Format output" style="shape=process;whiteSpace=wrap;html=1;backgroundOutline=1;" parent="1" vertex="1">
                    <mxGeometry x="1381" y="1828.5" width="136" height="60" as="geometry"/>
                </mxCell>
                <mxCell id="113" value="Results" style="shape=note;whiteSpace=wrap;html=1;backgroundOutline=1;darkOpacity=0.05;" parent="1" vertex="1">
                    <mxGeometry x="1614" y="1782.88" width="122" height="151.25" as="geometry"/>
                </mxCell>
            </root>
        </mxGraphModel>
    </diagram>
</mxfile>
